<?xml version="1.0" encoding="UTF-8"?>
<!DOCTYPE svg PUBLIC "-//W3C//DTD SVG 1.1//EN" "http://www.w3.org/Graphics/SVG/1.1/DTD/svg11.dtd">
<!-- Creator: CorelDRAW X8 -->
<svg xmlns="http://www.w3.org/2000/svg" xml:space="preserve" width="79.0748mm" height="241.565mm" version="1.1" style="shape-rendering:geometricPrecision; text-rendering:geometricPrecision; image-rendering:optimizeQuality; fill-rule:evenodd; clip-rule:evenodd"
viewBox="0 0 7792 23803"
 xmlns:xlink="http://www.w3.org/1999/xlink">
 <defs>
  <style type="text/css">
   <![CDATA[
    .str0 {stroke:#CB9A72;stroke-width:73.9041}
    .fil8 {fill:none}
    .fil0 {fill:black}
    .fil2 {fill:#3A1D0A}
    .fil7 {fill:#3C313F}
    .fil4 {fill:#605E6D}
    .fil6 {fill:#85ACCA}
    .fil3 {fill:#ABD0EA}
    .fil5 {fill:#FFCC9A}
    .fil1 {fill:#FFD3AE}
    .fil10 {fill:#323330;fill-opacity:0.458824}
    .fil9 {fill:#F0DB4F;fill-opacity:0.458824}
    .fil11 {fill:#FDFAEA;fill-opacity:0.458824}
   ]]>
  </style>
 </defs>
 <g id="Layer_x0020_1">
  <metadata id="CorelCorpID_0Corel-Layer"/>
  <g id="_2500599694784">
   <path class="fil0" d="M502 5493c-33,469 333,680 274,826 -135,332 70,744 471,750 49,430 -45,363 361,559 -57,169 129,576 451,425 21,370 218,486 498,326 220,283 829,-37 603,-174 -2624,-1588 -1622,-3832 -1658,-3928l-237 -131c265,-151 366,-254 313,-802 502,87 715,-91 986,-368l81 -80c303,344 594,235 796,-47 372,318 897,275 1300,-8 7,11 16,16 19,34 4,25 31,56 38,68 75,121 141,218 341,253 235,42 426,-51 568,-139 32,339 197,497 551,455 -33,416 10,476 224,700 7,6 19,19 25,26 6,6 19,21 24,26 5,5 -361,394 -354,403 -121,218 633,1317 -176,2438 -198,274 -1668,747 -1480,1207 253,326 418,-66 516,-19 352,12 595,39 690,-301 26,-94 374,228 518,-344 451,-223 522,-582 472,-907 433,-534 415,-1810 430,-1826 -38,-424 224,-417 126,-1051 -29,-188 -74,-191 -166,-325 361,-375 280,-721 -92,-1013 121,-206 88,-231 44,-461l-260 -112c137,-221 231,-834 -486,-832 -39,-588 -870,-663 -1118,-413 -11,-11 -23,-46 -28,-37 -21,41 -122,-488 -786,-204 72,-249 4,-336 -141,-467l-222 0c-461,317 -155,57 -460,425 -434,-460 -553,-210 -752,97 -421,-201 -703,125 -759,555 -466,-211 -859,35 -851,585 -351,36 -535,228 -642,493 -153,383 17,617 118,930 -405,96 -409,700 -54,879 -244,167 -293,764 -110,985 65,79 -78,451 -6,544z"/>
   <path class="fil1" d="M762 4919c-213,302 -408,728 -158,1188 82,150 242,297 401,360 380,154 222,-32 408,390 517,1175 1525,1218 1747,1348l-5 527c183,68 610,325 724,322 125,-3 502,-254 714,-318l-15 -531c389,-207 1312,-213 1785,-1384 162,-403 14,-202 392,-359 177,-73 324,-218 411,-399 242,-505 3,-865 -208,-1190 -165,174 -497,1080 -577,1041 -52,-24 -16,-138 38,-300 50,-149 118,-339 149,-538 50,-319 -69,-687 -13,-786 -7,-9 -19,-21 -24,-26 -5,-5 -18,-20 -24,-26 -6,-7 -18,-20 -25,-26 -214,-224 -257,-284 -224,-700 -354,42 -519,-116 -551,-455 -142,88 -333,181 -568,139 -200,-35 -266,-132 -341,-253 -7,-12 -34,-43 -38,-68 -3,-18 -12,-23 -19,-34 -403,283 -928,326 -1300,8 -202,282 -493,391 -796,47l-81 80c-271,277 -484,455 -986,368 53,548 -48,651 -313,802l-67 37c55,118 -3,420 37,885 8,91 112,481 120,556 37,342 104,341 64,407 -71,117 -369,-997 -657,-1112z"/>
   <path class="fil2" d="M5512 4829l-311 -11c-104,157 -170,161 -167,381 10,639 1020,405 478,-370z"/>
   <path class="fil2" d="M2309 5569l310 -29c139,-218 209,-762 -239,-723 -360,32 -361,492 -71,752z"/>
   <path class="fil0" d="M1890 4455c173,77 169,-89 489,-104 332,-16 364,122 569,132 138,-500 -916,-379 -1060,-192 -112,144 -4,151 2,164z"/>
   <path class="fil0" d="M4835 4470c188,40 191,-110 499,-121 340,-13 338,151 558,129l14 -119c-2,-8 -7,-27 -12,-35 -67,-131 -353,-190 -509,-194 -150,-3 -456,34 -542,161 -77,113 13,-143 -29,67 -45,229 -16,15 21,112z"/>
   <path class="fil3" d="M298 13840l1003 165c277,-8 234,-175 277,-489 48,-360 -59,-326 -27,-622 45,-410 148,-988 264,-1328 37,680 58,1366 81,2048 16,498 -41,1617 159,1925 147,-60 -20,-67 183,34 66,33 143,87 212,126 130,73 299,176 467,148 213,-35 756,-389 966,-398 211,-9 686,333 911,394 276,75 676,-277 973,-363 152,-307 168,-3320 222,-3913 81,225 199,961 238,1243 48,344 -192,1115 256,1198l1008 -161c215,-83 178,-83 159,-339 -3,-47 -75,-390 -92,-428 -140,-311 -109,169 -246,-686 -88,-552 -175,-1127 -274,-1658 -121,-656 -209,-954 -672,-1257 -285,-186 -1054,-461 -1423,-543l-285 879c-252,-118 -511,-452 -706,-542 5,166 102,5894 -74,6101 -92,-203 11,-5215 -69,-6093 -112,138 -505,409 -671,519l-299 -874c-398,106 -1026,336 -1361,529 -468,270 -579,507 -706,1169l-323 1990c-4,24 -28,158 -37,184 -69,194 -298,235 -276,975l162 67z"/>
   <path class="fil4" d="M2055 15539l309 7506c277,86 935,385 1083,656 83,-90 85,-109 86,-335l-25 -1434c-23,-1836 -104,-4166 -68,-5892l913 0 -87 7488c35,210 -19,115 91,190 181,-242 740,-588 1066,-671l344 -7567c-297,86 -697,438 -973,363 -225,-61 -700,-403 -911,-394 -210,9 -753,363 -966,398 -168,28 -337,-75 -467,-148 -69,-39 -146,-93 -212,-126 -203,-101 -36,-94 -183,-34z"/>
   <path class="fil5" d="M6483 14008c92,421 230,1180 236,1646 5,411 -461,641 -147,1541l232 5c127,-266 -21,-402 110,-608 353,177 -29,851 82,1231 620,94 806,-1029 796,-1677 -11,-665 -210,-1617 -301,-2299l-1008 161z"/>
   <path class="fil5" d="M1301 14005l-1003 -165c-101,1056 -518,2412 -148,3382 299,782 707,729 679,321 -14,-205 -283,-833 68,-943 100,257 -47,369 111,593 272,13 259,70 291,-663 26,-584 -186,-351 -224,-773 -41,-451 167,-1292 226,-1752z"/>
   <path class="fil6" d="M4943 8936l6 -17c-211,110 -291,476 -330,702l-741 -549c-266,128 -413,390 -685,536l-275 -738 -79 56 299 874c166,-110 559,-381 671,-519 80,878 -23,5890 69,6093 176,-207 79,-5935 74,-6101 195,90 454,424 706,542l285 -879z"/>
   <path class="fil3" d="M2918 8870l275 738c272,-146 419,-408 685,-536l741 549c39,-226 119,-592 330,-702 -113,-107 -227,-223 -351,-319l-720 431c-245,-112 -461,-308 -719,-420 -167,120 -161,74 -241,259z"/>
   <path class="fil7" d="M3447 23701c-148,-271 -806,-570 -1083,-656l-686 437c-147,100 -127,37 -168,210 212,152 1696,137 1937,9z"/>
   <path class="fil7" d="M4357 23718c286,120 1724,114 1945,-19 -75,-181 -709,-558 -879,-652 -326,83 -885,429 -1066,671z"/>
   <line class="fil8 str0" x1="3689" y1="4977" x2="3689" y2= "6416" />
   <path class="fil8 str0" d="M3112 7056c451,230 903,259 1354,-20"/>
   <g>
    <polygon class="fil9" points="4225,12177 5424,12177 5424,10978 4225,10978 "/>
    <path class="fil10" d="M5029 11914l-91 52c6,17 27,41 36,51 48,50 121,70 194,63 101,-8 175,-71 160,-184 -14,-99 -104,-127 -183,-163 -22,-10 -41,-19 -53,-34 -15,-19 -11,-50 4,-65 21,-20 69,-21 94,7 4,5 6,7 10,12 3,5 6,11 9,14 10,-5 32,-21 44,-28 6,-4 40,-25 43,-28 -11,-24 -39,-53 -61,-66 -78,-46 -225,-30 -257,82 -15,51 -2,104 22,139 36,49 103,71 160,97 21,9 40,20 50,36 22,35 -3,86 -76,83 -26,-1 -47,-9 -64,-22 -8,-6 -15,-13 -22,-21 -8,-10 -13,-19 -17,-23 -1,-1 -1,-1 -2,-2z"/>
    <path class="fil10" d="M4764 11907c0,46 -11,73 -57,74 -39,1 -60,-27 -75,-57 -5,1 -17,9 -23,13l-69 42c7,16 20,35 30,45 14,15 24,24 43,34 34,20 81,27 127,22 91,-11 137,-72 137,-170l0 -382 -113 0 0 379z"/>
    <polygon class="fil11" points="5424,12177 5425,12177 5425,10977 4225,10977 4225,10978 5424,10978 "/>
   </g>
  </g>
 </g>
</svg>
