<?xml version="1.0" encoding="UTF-8"?>
<!DOCTYPE svg PUBLIC "-//W3C//DTD SVG 1.1//EN" "http://www.w3.org/Graphics/SVG/1.1/DTD/svg11.dtd">
<!-- Creator: CorelDRAW X8 -->
<svg xmlns="http://www.w3.org/2000/svg" xml:space="preserve" width="31.756mm" height="97.0109mm" version="1.1" style="shape-rendering:geometricPrecision; text-rendering:geometricPrecision; image-rendering:optimizeQuality; fill-rule:evenodd; clip-rule:evenodd"
viewBox="0 0 2305 7041"
 xmlns:xlink="http://www.w3.org/1999/xlink">
 <defs>
  <style type="text/css">
   <![CDATA[
    .str0 {stroke:#CB9A72;stroke-width:54.4321}
    .fil8 {fill:none}
    .fil0 {fill:black}
    .fil2 {fill:#3A1D0A}
    .fil7 {fill:#3C313F}
    .fil4 {fill:#605E6D}
    .fil6 {fill:#85ACCA}
    .fil3 {fill:#ABD0EA}
    .fil5 {fill:#FFCC9A}
    .fil1 {fill:#FFD3AE}
   ]]>
  </style>
 </defs>
 <g id="Layer_x0020_1">
  <metadata id="CorelCorpID_0Corel-Layer"/>
  <g id="_1710438925392">
   <path class="fil0" d="M148 1625c-9,138 99,201 81,244 -39,98 21,220 140,222 14,127 -13,107 107,165 -17,50 38,171 133,126 6,109 64,144 147,96 65,84 246,-11 179,-51 -776,-470 -480,-1133 -491,-1162l-70 -39c79,-44 108,-75 93,-237 148,26 211,-27 291,-109l24 -24c90,102 176,70 236,-13 110,94 265,81 384,-3 3,3 5,5 6,10 1,8 9,17 11,21 22,35 42,64 101,74 70,13 126,-15 168,-41 9,101 58,147 163,135 -10,123 3,140 66,207 2,2 6,6 8,7 1,2 5,7 7,8 1,2 -107,117 -105,120 -36,64 187,389 -52,720 -59,82 -493,221 -438,358 75,96 124,-20 153,-6 104,4 176,12 204,-89 8,-28 111,67 153,-102 134,-66 155,-172 140,-268 128,-158 123,-536 127,-540 -11,-125 66,-123 37,-311 -8,-56 -22,-57 -49,-96 107,-111 83,-214 -27,-300 36,-61 26,-68 13,-136l-77 -33c41,-66 68,-247 -144,-246 -11,-174 -257,-196 -331,-123 -3,-3 -6,-13 -8,-11 -6,13 -36,-144 -232,-60 21,-74 1,-99 -42,-138l-66 0c-136,94 -45,17 -135,126 -129,-136 -164,-62 -223,28 -125,-59 -208,37 -224,164 -138,-62 -254,11 -252,174 -104,10 -159,67 -190,145 -45,114 5,183 35,275 -120,29 -121,207 -16,260 -72,50 -87,226 -33,292 20,23 -23,133 -2,161z"/>
   <path class="fil1" d="M225 1455c-63,89 -120,215 -46,351 24,45 71,88 118,107 113,45 66,-10 121,115 153,348 451,361 517,399l-2 156c54,20 181,96 214,95 37,-1 149,-75 212,-94l-5 -157c115,-61 388,-63 528,-409 48,-120 4,-60 116,-107 52,-21 96,-64 121,-118 72,-149 1,-256 -61,-352 -49,52 -147,320 -171,308 -15,-7 -4,-41 12,-88 15,-45 34,-101 44,-160 15,-94 -21,-203 -4,-232 -2,-3 -6,-6 -7,-8 -2,-1 -6,-6 -7,-8 -2,-1 -6,-5 -8,-7 -63,-67 -76,-84 -66,-207 -105,12 -154,-34 -163,-135 -42,26 -98,54 -168,41 -59,-10 -79,-39 -101,-74 -2,-4 -10,-13 -11,-21 -1,-5 -3,-7 -6,-10 -119,84 -274,97 -384,3 -60,83 -146,115 -236,13l-24 24c-80,82 -143,135 -291,109 15,162 -14,193 -93,237l-20 11c17,35 -1,125 11,262 3,27 33,142 36,165 11,101 31,100 19,120 -21,34 -110,-295 -195,-329z"/>
   <path class="fil2" d="M1630 1428l-92 -3c-30,46 -50,48 -49,113 3,189 302,120 141,-110z"/>
   <path class="fil2" d="M683 1647l92 -8c41,-65 61,-226 -71,-214 -106,9 -107,145 -21,222z"/>
   <path class="fil0" d="M559 1318c51,23 50,-26 145,-31 98,-5 107,36 168,39 41,-148 -271,-112 -314,-57 -33,43 -1,45 1,49z"/>
   <path class="fil0" d="M1430 1322c56,12 56,-32 148,-36 100,-3 100,45 165,38l4 -35c-1,-2 -2,-8 -4,-10 -19,-39 -104,-56 -150,-57 -45,-1 -135,10 -161,47 -22,34 4,-42 -8,20 -13,68 -5,4 6,33z"/>
   <path class="fil3" d="M88 4094l297 48c82,-2 69,-51 82,-144 14,-107 -18,-97 -8,-184 13,-121 43,-292 78,-393 11,201 17,404 24,606 5,147 -12,478 47,569 43,-18 -6,-19 54,10 19,10 42,26 63,37 38,22 88,52 138,44 63,-10 223,-115 286,-117 62,-3 202,98 269,116 82,22 200,-82 288,-107 45,-91 49,-982 65,-1158 24,67 59,285 71,368 14,102 -57,330 75,354l299 -47c63,-25 52,-25 47,-101 -1,-13 -22,-115 -27,-126 -42,-92 -33,50 -73,-203 -26,-163 -52,-333 -81,-491 -36,-193 -62,-282 -199,-371 -84,-55 -312,-137 -421,-161l-84 260c-75,-35 -151,-134 -209,-160 1,49 30,1743 -22,1804 -27,-60 3,-1542 -20,-1802 -34,41 -150,121 -199,154l-88 -259c-118,32 -304,100 -403,157 -138,79 -171,150 -209,346l-95 588c-1,7 -8,47 -11,54 -21,58 -88,70 -82,289l48 20z"/>
   <path class="fil4" d="M608 4596l91 2220c82,26 277,114 321,194 24,-26 25,-32 25,-99l-7 -424c-7,-543 -31,-1232 -21,-1743l271 0 -26 2215c10,62 -6,34 27,56 53,-71 219,-174 315,-198l102 -2238c-88,25 -206,129 -288,107 -67,-18 -207,-119 -269,-116 -63,2 -223,107 -286,117 -50,8 -100,-22 -138,-44 -21,-11 -44,-27 -63,-37 -60,-29 -11,-28 -54,-10z"/>
   <path class="fil5" d="M1917 4143c28,125 69,349 70,487 2,122 -136,190 -43,456l69 2c37,-79 -7,-119 32,-180 105,52 -8,251 24,364 184,28 239,-305 236,-496 -3,-197 -62,-479 -89,-680l-299 47z"/>
   <path class="fil5" d="M385 4142l-297 -48c-30,312 -153,713 -43,1000 88,231 208,216 200,95 -4,-61 -84,-246 20,-279 30,76 -14,109 33,175 80,4 77,21 86,-196 8,-172 -55,-104 -66,-228 -12,-134 49,-382 67,-519z"/>
   <path class="fil6" d="M1462 2643l2 -5c-62,33 -86,141 -98,208l-219 -163c-79,38 -122,116 -202,159l-82 -218 -23 16 88 259c49,-33 165,-113 199,-154 23,260 -7,1742 20,1802 52,-61 23,-1755 22,-1804 58,26 134,125 209,160l84 -260z"/>
   <path class="fil3" d="M863 2624l82 218c80,-43 123,-121 202,-159l219 163c12,-67 36,-175 98,-208 -34,-32 -67,-66 -104,-94l-213 127c-72,-33 -136,-91 -213,-124 -49,35 -47,22 -71,77z"/>
   <path class="fil7" d="M1020 7010c-44,-80 -239,-168 -321,-194l-203 129c-43,30 -37,12 -49,63 62,45 501,40 573,2z"/>
   <path class="fil7" d="M1289 7015c84,36 510,34 575,-5 -22,-54 -210,-165 -260,-193 -96,24 -262,127 -315,198z"/>
   <line class="fil8 str0" x1="1091" y1="1472" x2="1091" y2= "1898" />
   <path class="fil8 str0" d="M920 2087c134,68 268,77 401,-6"/>
  </g>
 </g>
</svg>
